HIERARCHY
ROOT hip
{
	OFFSET 0.000000 0.000000 0.000000 
	CHANNELS 6 Xposition Yposition Zposition Xrotation Zrotation Yrotation
	JOINT abdomen
	{
		OFFSET 0.000000 3.402643 0.000000 
		CHANNELS 3 Xrotation Zrotation Yrotation
		JOINT chest
		{
			OFFSET 0.000000 8.438565 -0.680529 
			CHANNELS 3 Xrotation Zrotation Yrotation
			JOINT neck
			{
				OFFSET 0.000000 10.207942 -0.272212 
				CHANNELS 3 Xrotation Zrotation Yrotation
				JOINT head
				{
					OFFSET 0.000000 3.130431 0.000000 
					CHANNELS 3 Xrotation Zrotation Yrotation
					End Site
					{
						OFFSET 0.000000 3.130435 0.000000 
					}
				}
			}
			JOINT lCollar
			{
				OFFSET 3.470700 6.669187 -0.816635 
				CHANNELS 3 Yrotation Zrotation Xrotation
				JOINT lShldr
				{
					OFFSET 3.198488 0.000000 0.000000 
					CHANNELS 3 Zrotation Yrotation Xrotation
					JOINT lForeArm
					{
						OFFSET 10.139888 0.000000 0.000000 
						CHANNELS 3 Yrotation Zrotation Xrotation
						JOINT lHand
						{
							OFFSET 8.370511 0.000000 0.000000 
							CHANNELS 3 Zrotation Yrotation Xrotation
							End Site
							{
								OFFSET 4.083176 0.000000 0.000000 
							}
						}
					}
				}
			}
			JOINT rCollar
			{
				OFFSET -3.470700 6.669187 -0.816635 
				CHANNELS 3 Yrotation Zrotation Xrotation
				JOINT rShldr
				{
					OFFSET -3.198488 0.000000 0.000000 
					CHANNELS 3 Zrotation Yrotation Xrotation
					JOINT rForeArm
					{
						OFFSET -10.139888 0.000000 0.000000 
						CHANNELS 3 Yrotation Zrotation Xrotation
						JOINT rHand
						{
							OFFSET -8.370511 0.000000 0.000000 
							CHANNELS 3 Zrotation Yrotation Xrotation
							End Site
							{
								OFFSET -4.083176 0.000000 0.000000 
							}
						}
					}
				}
			}
		}
	}
	JOINT lThigh
	{
		OFFSET 5.308129 -1.633274 1.361059 
		CHANNELS 3 Xrotation Zrotation Yrotation
		JOINT lShin
		{
			OFFSET -2.041588 -20.007561 0.000000 
			CHANNELS 3 Xrotation Zrotation Yrotation
			JOINT lFoot
			{
				OFFSET 0.000000 -19.190928 -1.224953 
				CHANNELS 3 Xrotation Yrotation Zrotation
				End Site
				{
					OFFSET 0.000000 -2.449906 4.627600 
				}
			}
		}
	}
	JOINT rThigh
	{
		OFFSET -5.308129 -1.633274 1.361059 
		CHANNELS 3 Xrotation Zrotation Yrotation
		JOINT rShin
		{
			OFFSET 2.041588 -20.007561 0.000000 
			CHANNELS 3 Xrotation Zrotation Yrotation
			JOINT rFoot
			{
				OFFSET 0.000000 -19.190928 -1.224953 
				CHANNELS 3 Xrotation Yrotation Zrotation
				End Site
				{
					OFFSET 0.000000 -2.449906 4.627600 
				}
			}
		}
	}
}
MOTION
Frames: 13
Frame Time: 0.011111
5.986559 50.017326 -40.144581 22.250198 -12.386059 3.480779 -2.803319 13.563563 6.985385 -26.099524 7.400727 0.917281 -13.678418 -3.294125 -5.770867 40.080791 0.574860 -12.925009 -5.788594 -15.737329 -1.465587 13.760928 -4.736207 -2.588743 -39.914818 4.705860 4.353711 8.524705 12.647240 -99.847061 7.611086 14.174596 -1.900835 -24.068520 16.227139 -40.372604 35.261639 -2.910971 2.810663 -8.534408 -12.637552 -40.425922 -31.425249 0.077869 -0.884401 37.118759 -4.865135 -5.770073 -59.427010 1.687506 10.655088 -36.817886 -10.664709 19.578566 42.084854 4.482528 6.335793 -77.804878 11.978039 4.317937 
6.168679 49.985321 -40.206676 21.557526 -13.234021 4.792879 -1.889297 14.907542 6.650347 -26.165390 7.192595 0.738772 -13.984587 -3.669438 -5.723376 39.806782 0.282927 -13.101169 -5.788594 -15.737329 -1.465587 15.797425 -6.312166 -0.230075 -40.207970 4.811261 4.460231 8.524705 12.647240 -98.401749 7.611086 14.174596 -1.900835 -26.356554 18.136557 -35.219704 35.261639 -2.910971 2.810663 -8.534408 -12.637552 -35.836075 -30.926922 0.292868 -1.218581 37.158096 -4.874845 -5.747481 -58.617607 2.113506 10.591723 -37.736008 -10.147153 19.127731 42.231533 4.482574 6.367870 -78.369278 12.138689 4.497097 
6.239094 49.962597 -40.215317 21.229391 -12.905783 5.485687 -1.688720 14.248670 6.719670 -26.249861 7.513573 0.765660 -13.302409 -3.766355 -5.957646 39.088261 0.238547 -13.565084 -5.788594 -15.737329 -1.465587 18.281868 -8.362628 3.267509 -40.623440 4.961339 4.602933 8.524705 12.647240 -96.155647 7.611086 14.174596 -1.900835 -28.392948 19.149048 -30.123070 35.291489 -2.925258 2.824277 -8.534408 -12.637552 -32.271626 -30.463566 -0.293391 -1.073473 37.117947 -4.878619 -5.754891 -58.238781 2.351234 10.588531 -39.499287 -9.473159 21.718496 42.430923 4.443135 6.380014 -80.205513 13.071781 7.680648 
6.357840 49.927708 -40.235802 20.758205 -12.954293 6.494148 -1.190605 14.314611 6.519443 -26.389008 7.564342 0.670961 -13.233993 -3.878498 -6.085531 38.732662 -0.046986 -13.954640 -5.788594 -15.737329 -1.465587 20.438366 -10.265415 4.574467 -40.836117 5.035179 4.681074 8.524705 12.647240 -95.755264 7.611086 14.174596 -1.900835 -30.456982 20.576017 -23.224396 35.460812 -2.994184 2.875189 -8.534408 -12.637552 -26.011858 -29.919346 -0.605908 -0.870056 37.098320 -4.874889 -5.761707 -57.554337 2.696083 10.547812 -40.921978 -8.985702 22.881914 42.587517 4.449746 6.395972 -81.324493 13.493480 9.313831 
6.483627 49.886738 -40.280613 20.312534 -13.282067 7.474325 -0.642695 14.788927 6.433283 -26.673374 7.493136 0.594732 -13.213071 -3.905460 -6.210695 38.514137 -0.426114 -14.317104 -5.788594 -15.737329 -1.465587 22.528471 -12.223608 5.701875 -40.917168 5.063564 4.712375 8.524705 12.647240 -95.774788 7.611086 14.174596 -1.900835 -32.501213 22.061184 -15.729745 35.729881 -3.103928 2.958531 -8.534408 -12.637552 -18.648581 -29.527657 -0.605458 -0.602855 37.008041 -4.892343 -5.749698 -56.546944 3.595083 10.844007 -42.461174 -8.273832 23.543018 42.815178 4.423631 6.416313 -82.063438 13.712989 10.200610 
6.573886 49.844173 -40.289257 19.491491 -13.388090 8.863823 0.189282 14.956391 6.009950 -26.745676 7.629517 0.428710 -13.213307 -4.013311 -6.285725 38.072910 -0.804251 -14.647769 -5.788594 -15.737329 -1.465587 24.438465 -14.230760 6.980191 -41.048920 5.108326 4.759843 8.524705 12.647240 -95.179092 7.611086 14.174596 -1.900835 -34.512154 23.632427 -12.378484 35.709805 -3.097760 2.960954 -8.534408 -12.637552 -16.158344 -28.606966 -0.859265 -0.513612 36.928871 -4.892353 -5.752499 -55.535393 4.223891 10.845694 -43.348991 -7.314445 25.512568 42.982643 4.416991 6.428176 -84.121658 14.210182 12.494678 
6.644941 49.797436 -40.280613 18.474737 -13.045675 10.703721 1.188863 14.596674 5.113352 -26.704126 7.951816 0.132482 -13.302730 -4.176443 -6.292348 37.376801 -1.212112 -14.823778 -5.788594 -15.737329 -1.465587 26.252892 -15.976354 8.258348 -41.404270 5.230535 4.884320 8.524705 12.647240 -94.456436 7.611086 14.174596 -1.900835 -36.554047 25.275795 -5.291171 36.368820 -3.368762 3.168842 -8.534408 -12.637552 -7.779438 -27.208841 -1.484626 0.012090 36.841702 -4.878611 -5.740501 -54.256855 4.772900 10.582375 -43.882034 -6.710546 27.914534 43.130413 4.393982 6.471129 -86.542107 14.581464 15.367874 
6.740962 49.757748 -40.310062 17.797674 -12.885182 12.005631 2.017567 14.529902 4.639982 -26.933931 8.069520 -0.045042 -13.235811 -4.284874 -6.321207 36.883186 -1.458610 -14.984272 -5.788594 -15.737329 -1.465587 28.246340 -17.660574 10.126355 -41.892002 5.393806 5.059518 8.524705 12.647240 -93.216202 7.611086 14.174596 -1.900835 -38.444435 26.884989 0.416670 36.998447 -3.613088 3.372262 -8.534408 -12.637552 -1.285298 -26.292934 -1.699162 1.058978 36.730263 -4.911679 -5.721868 -52.828205 5.262354 10.183961 -45.135704 -6.250318 29.079086 43.209663 4.393751 6.458255 -87.440552 14.670828 16.268166 
6.859386 49.709743 -40.342068 17.289537 -12.885770 12.853653 2.636524 14.654977 4.620099 -27.041113 8.007232 -0.080675 -13.021095 -4.347447 -6.450493 36.365059 -1.570305 -15.264396 -5.788594 -15.737329 -1.465587 30.329466 -19.622412 12.271265 -42.381207 5.559949 5.234727 8.524705 12.647240 -91.165421 7.611086 14.174596 -1.900835 -40.206890 28.293182 5.363131 37.539486 -3.828219 3.559590 -8.534408 -12.637552 4.300640 -25.719795 -1.855446 1.574088 36.691177 -4.911591 -5.708707 -51.984608 5.583917 9.963846 -46.735695 -5.753046 29.470306 43.249374 4.383961 6.467675 -87.491867 14.656912 15.962704 
6.987414 49.666214 -40.389435 16.972954 -12.787838 13.626813 2.996406 14.547214 4.719520 -27.030390 7.971410 -0.053014 -12.640238 -4.403357 -6.652366 35.575153 -1.631372 -15.645397 -5.788594 -15.737329 -1.465587 32.276463 -21.917055 13.567992 -42.656364 5.648588 5.333295 8.524705 12.647240 -90.032600 7.611086 14.174596 -1.900835 -41.971642 29.463186 9.753844 38.162037 -4.070313 3.769086 -8.534408 -12.637552 9.251811 -25.348608 -2.148880 2.166788 36.751835 -4.903905 -5.692152 -51.260475 5.694803 9.635242 -48.569901 -5.421991 29.696466 43.219124 4.393830 6.469010 -87.309044 14.655554 16.057051 
7.130805 49.605713 -40.483856 16.862970 -12.877323 14.487026 3.209350 14.816806 4.645773 -27.156830 7.888296 -0.097868 -12.273342 -4.634300 -6.746202 34.805595 -1.683218 -15.854135 -5.788594 -15.737329 -1.465587 34.010197 -24.038658 13.894355 -42.809734 5.701156 5.388925 8.524705 12.647240 -89.446671 7.611086 14.174596 -1.900835 -43.777927 30.969851 13.067282 38.805908 -4.312220 3.983395 -8.534408 -12.637552 13.197124 -25.395271 -2.450929 2.335094 36.839767 -4.901945 -5.728342 -50.642056 5.853467 9.419452 -50.738205 -5.402186 28.738373 43.170021 4.394011 6.464855 -85.502495 14.529120 15.529432 
7.247950 49.554188 -40.539867 16.456547 -13.027570 15.603954 3.720568 15.215565 4.293974 -27.157639 7.906961 -0.238822 -12.429137 -4.726177 -6.795295 34.262936 -2.156842 -16.118149 -5.788594 -15.737329 -1.465587 35.721294 -25.880886 14.069324 -43.024509 5.774203 5.470267 8.524705 12.647240 -88.011116 7.611086 14.174596 -1.900835 -45.677750 32.544289 16.345839 39.602669 -4.609059 4.263000 -8.534408 -12.637552 17.386578 -25.068041 -2.626664 2.456724 36.917530 -4.917596 -5.720725 -49.786194 6.067191 9.130280 -52.341713 -5.206094 27.969225 43.140034 4.400680 6.464792 -83.494156 14.297089 14.135965 
7.323805 49.494976 -40.517784 15.728518 -12.577543 17.018044 4.491840 14.788776 3.628912 -27.134968 8.192016 -0.445849 -12.280994 -4.659040 -6.900040 33.407417 -2.603456 -16.399431 -5.788594 -15.737329 -1.465587 37.491665 -27.713858 14.157681 -43.330933 5.869928 5.578703 8.524705 12.647240 -86.878304 7.611086 14.174596 -1.900835 -47.481186 33.938095 19.739258 40.634296 -4.975190 4.617587 -8.534408 -12.637552 21.849468 -23.954294 -3.212825 2.773044 36.956940 -4.917702 -5.724212 -48.925938 6.017570 8.623655 -53.345631 -4.913910 28.873886 43.170021 4.394012 6.464855 -83.180809 14.211455 13.631558 
